<?xml version="1.0" standalone="no"?>
<!DOCTYPE svg PUBLIC "-//W3C//DTD SVG 20010904//EN"
 "http://www.w3.org/TR/2001/REC-SVG-20010904/DTD/svg10.dtd">
<svg version="1.0" xmlns="http://www.w3.org/2000/svg"
 width="760.000000pt" height="760.000000pt" viewBox="0 0 760.000000 760.000000"
 preserveAspectRatio="xMidYMid meet">
<metadata>
Created by potrace 1.14, written by Peter Selinger 2001-2017
</metadata>
<g transform="translate(0.000000,760.000000) scale(0.100000,-0.100000)"
fill="#000000" stroke="none">
<path d="M3625 7249 c-290 -18 -667 -114 -973 -247 -392 -171 -775 -458 -1050
-787 -41 -49 -76 -92 -78 -94 -3 -3 -20 10 -39 29 l-35 34 25 32 c40 53 29 48
-36 -16 -33 -33 -68 -60 -77 -60 -10 0 -28 9 -42 20 -38 29 -71 25 -109 -14
-18 -19 -38 -43 -45 -53 -18 -31 -73 -116 -93 -143 -10 -14 -25 -41 -34 -61
-10 -20 -22 -39 -27 -43 -13 -8 -182 -349 -182 -367 0 -8 -9 -29 -20 -47 -11
-18 -20 -40 -20 -50 0 -9 -9 -32 -20 -50 -11 -18 -20 -41 -20 -52 0 -10 -4
-22 -10 -25 -5 -3 -10 -17 -10 -30 0 -13 -4 -27 -10 -30 -5 -3 -10 -15 -10
-26 0 -10 -4 -27 -9 -37 -14 -29 -31 -87 -31 -110 0 -11 -4 -24 -10 -27 -5 -3
-10 -21 -10 -40 0 -19 -4 -37 -10 -40 -5 -3 -10 -26 -10 -50 0 -24 -4 -47 -10
-50 -5 -3 -10 -26 -10 -50 0 -24 -4 -47 -10 -50 -5 -3 -10 -30 -10 -60 0 -30
-4 -57 -10 -60 -5 -3 -10 -46 -10 -94 0 -48 -5 -92 -10 -97 -13 -13 -6 -457 9
-619 6 -60 13 -139 16 -175 3 -36 10 -74 15 -85 5 -11 11 -42 14 -70 2 -27 9
-70 16 -95 6 -25 15 -65 20 -90 8 -43 17 -82 38 -160 5 -20 21 -62 35 -95 14
-33 31 -78 38 -100 6 -22 15 -50 20 -63 5 -13 9 -37 9 -55 0 -18 13 -66 29
-107 48 -126 64 -221 40 -236 -6 -3 -19 2 -29 12 -18 20 -100 205 -100 228 0
15 -29 86 -30 73 0 -15 48 -188 70 -251 23 -68 23 -69 10 -61 -5 3 -10 -3 -10
-14 0 -32 -18 -25 -25 9 -7 34 -25 50 -25 23 0 -10 11 -67 25 -127 19 -82 22
-113 13 -123 -8 -11 -7 -12 6 -7 14 6 16 1 10 -34 -4 -24 -2 -47 6 -58 10 -17
11 -17 6 5 -7 35 8 12 23 -34 86 -267 213 -496 365 -659 43 -45 63 -75 61 -87
-3 -13 9 -28 40 -49 24 -17 50 -38 57 -48 18 -24 74 -65 128 -92 57 -30 83
-35 50 -10 -24 19 -36 24 -52 21 -5 0 -8 4 -8 9 0 6 2 10 5 10 16 0 154 -83
150 -89 -2 -5 7 -13 21 -20 31 -14 37 -14 29 -1 -3 5 -1 10 5 10 6 0 10 -7 8
-16 -3 -16 2 -18 144 -63 66 -21 144 -28 135 -13 -3 4 21 5 54 4 43 -3 59 -8
59 -18 0 -9 11 -14 33 -13 l32 1 -30 8 c-28 7 -27 8 13 9 27 1 41 -3 37 -9 -3
-5 1 -10 10 -10 10 0 13 5 9 12 -5 7 -1 9 13 6 30 -8 47 7 49 43 1 18 -1 26
-6 19 -7 -12 -25 8 -119 142 l-33 46 -72 -5 c-74 -5 -206 13 -304 42 -89 27
-54 25 61 -2 59 -15 110 -23 114 -20 9 10 2 15 -31 21 -16 3 -31 8 -35 12 -3
4 8 4 24 1 17 -4 74 -10 128 -13 81 -6 97 -5 97 7 0 8 -4 19 -9 24 -5 6 -24
40 -43 76 l-35 67 27 -9 c19 -7 36 -29 61 -77 19 -37 35 -69 37 -71 1 -3 18 3
37 12 39 18 45 20 44 11 0 -4 4 -10 10 -14 7 -4 -3 -14 -24 -26 -19 -10 -35
-23 -35 -28 0 -5 35 -58 77 -118 l78 -109 40 4 c56 5 156 37 150 48 -4 5 -1 9
5 9 7 0 10 -6 7 -14 -8 -21 1 -25 35 -15 25 7 34 5 45 -9 8 -9 12 -11 8 -4 -3
6 -1 12 5 12 6 0 15 -11 20 -25 11 -28 26 -35 16 -7 -5 15 -4 14 9 -2 8 -10
12 -23 8 -29 -3 -6 -1 -7 6 -3 6 4 9 12 6 17 -4 5 -2 9 4 9 16 0 22 -18 9 -23
-9 -3 -4 -11 12 -25 42 -36 11 -24 -59 21 -36 24 -71 47 -77 50 -7 4 -29 0
-49 -9 -21 -8 -44 -13 -52 -10 -8 3 -12 2 -8 -3 6 -11 -50 -25 -65 -16 -5 3
-10 1 -10 -4 0 -6 -7 -11 -16 -11 -8 0 -12 5 -9 10 3 6 1 10 -4 10 -6 0 -11
-2 -11 -5 0 -14 30 -62 50 -80 l23 -20 -12 23 c-11 20 -10 27 5 43 9 10 28 19
41 19 13 0 42 9 63 20 47 24 56 21 155 -54 33 -25 85 -55 115 -67 30 -12 81
-35 112 -51 47 -23 71 -28 129 -28 110 0 117 -7 211 -200 44 -91 80 -176 81
-190 2 -24 -1 -25 -68 -30 l-70 -5 55 -7 c54 -7 158 -3 168 6 2 3 -9 21 -26
40 -16 19 -44 55 -62 81 -29 41 -31 49 -17 57 17 9 13 38 -5 38 -7 0 -6 -5 1
-14 9 -10 8 -15 -3 -19 -15 -6 -80 125 -112 225 -9 31 -20 55 -23 54 -3 -2 -6
11 -6 29 0 18 3 31 7 29 4 -2 9 0 13 6 3 5 0 10 -8 10 -8 0 -17 10 -21 23 -9
33 -8 36 12 30 12 -3 23 -21 30 -49 14 -51 5 -50 136 -18 40 10 63 11 70 4 12
-12 -56 -43 -101 -44 -17 -1 -29 -4 -27 -8 2 -4 -6 -8 -18 -10 -35 -5 -33 -30
11 -128 22 -50 36 -88 31 -85 -6 4 -10 -1 -10 -10 0 -9 6 -15 13 -12 17 5 57
-63 51 -88 -4 -13 -2 -16 3 -7 7 9 15 4 31 -17 l21 -29 -22 4 c-20 4 -20 3 2
-6 14 -6 38 -27 55 -47 l32 -36 48 22 c26 13 54 20 62 17 8 -3 13 -2 10 2 -3
5 23 24 58 42 115 59 244 165 342 281 36 43 71 76 77 73 7 -2 24 7 37 21 24
25 16 36 -9 13 -11 -10 -13 -10 -7 0 5 8 0 12 -15 12 -18 0 -19 -2 -9 -15 11
-13 10 -14 -4 -9 -9 3 -16 12 -16 20 0 16 75 20 84 5 3 -5 17 -8 31 -8 19 0
23 3 16 16 -5 9 -6 22 -4 29 3 6 -1 12 -9 12 -10 0 -9 3 2 10 20 13 53 13 45
0 -4 -6 -9 -8 -13 -6 -4 2 -8 -7 -9 -21 l-1 -26 74 5 c50 3 74 1 74 -6 0 -7 3
-7 8 1 4 7 41 19 82 28 112 23 194 52 305 107 54 28 93 43 86 34 -23 -27 -7
-27 24 0 22 19 25 24 10 19 -13 -4 -17 -3 -10 4 6 5 19 11 30 13 11 1 23 7 27
13 4 5 10 7 13 3 12 -11 -107 -97 -190 -137 -91 -45 -143 -64 -231 -84 -55
-13 -62 -13 -72 2 -11 15 -11 15 -6 0 7 -21 -32 -28 -128 -25 -53 2 -66 0 -58
-9 6 -7 25 -16 43 -19 26 -5 29 -9 17 -17 -13 -9 -12 -10 3 -5 23 7 49 -3 40
-17 -3 -6 -1 -7 6 -3 6 4 62 -13 124 -37 61 -24 126 -47 142 -51 29 -6 29 -6
10 9 -11 9 -31 18 -45 21 -58 13 -165 61 -165 75 0 27 65 49 140 48 81 -2 181
9 210 23 11 6 39 28 62 50 38 38 79 54 148 61 26 3 31 -26 11 -67 -16 -34 -88
-106 -106 -106 -5 0 -37 -27 -71 -60 -54 -53 -66 -60 -102 -61 l-42 -1 40 -14
40 -13 -50 1 c-27 1 -60 8 -72 16 -12 7 -27 11 -33 7 -5 -3 -10 -1 -10 4 0 6
-12 11 -26 11 -14 0 -35 5 -47 11 -17 9 -19 9 -11 0 6 -7 44 -25 85 -41 104
-41 63 -37 -62 6 -159 56 -335 148 -310 163 6 4 -7 7 -29 7 -27 -1 -44 -7 -54
-21 -18 -24 -21 -44 -4 -27 19 19 80 14 123 -12 83 -49 262 -135 305 -147 25
-7 51 -17 58 -22 15 -12 16 -49 0 -65 -25 -25 9 -10 55 24 28 20 45 39 41 46
-4 7 -3 8 4 4 6 -4 20 2 32 14 11 11 22 20 24 20 6 0 160 161 231 242 37 43
72 75 76 72 5 -3 6 2 3 10 -3 9 5 26 21 42 22 22 29 24 37 13 8 -12 9 -11 5 1
-2 8 -10 14 -16 12 -8 -1 -9 2 -4 10 5 7 19 30 32 50 24 40 35 46 47 26 4 -7
3 -8 -4 -4 -7 4 -12 1 -12 -9 0 -10 5 -13 12 -9 7 5 8 2 3 -7 -16 -29 -116
-176 -151 -223 -20 -26 -30 -45 -22 -40 7 4 33 21 57 36 26 16 59 28 78 28 43
0 83 38 83 78 0 15 5 33 12 40 15 15 163 16 206 1 27 -9 37 -8 66 10 29 18 66
72 66 96 0 4 9 19 21 33 18 23 20 35 14 87 -7 66 0 87 53 172 32 50 54 69 122
106 18 11 55 37 80 58 50 42 65 46 94 24 21 -16 19 -35 -14 -122 -11 -29 -29
-79 -41 -110 -11 -32 -30 -76 -41 -98 -37 -72 -1 -22 46 65 43 77 120 244 176
382 24 59 47 75 81 57 33 -17 113 -10 161 14 39 20 44 20 35 6 -17 -27 -2 -33
27 -12 14 10 26 28 26 40 0 11 19 45 42 75 45 57 58 69 69 62 4 -2 5 5 2 16
-3 12 1 22 11 26 9 3 16 12 16 20 0 8 5 14 12 14 6 0 8 3 5 7 -4 3 1 12 11 20
9 8 11 11 4 8 -11 -6 -12 -3 -3 14 7 11 14 21 17 21 3 0 2 -4 -1 -10 -3 -5 -2
-10 3 -10 6 0 13 7 16 16 4 9 9 15 11 12 3 -3 -2 -22 -11 -43 -13 -31 -13 -39
-2 -46 7 -5 16 -9 20 -9 4 0 8 -17 10 -37 3 -37 4 -35 36 45 44 111 127 406
157 559 4 18 2 34 -4 38 -18 10 -13 73 9 115 11 22 20 45 20 52 0 8 13 40 30
73 16 33 30 68 30 77 0 9 5 20 10 23 6 3 10 15 10 26 0 10 4 27 9 37 5 9 15
37 22 62 7 25 16 49 21 55 4 5 8 19 8 31 0 13 5 26 10 29 6 3 10 21 10 40 0
19 5 37 10 40 6 3 10 21 10 40 0 19 5 37 10 40 6 3 10 21 10 40 0 19 5 37 10
40 6 3 10 26 10 50 0 24 5 47 10 50 6 3 10 28 10 55 0 27 4 52 10 55 5 3 10
46 10 95 0 49 5 92 10 95 6 4 10 120 10 315 0 195 -4 311 -10 315 -5 3 -10 39
-10 80 0 41 -4 77 -10 80 -5 3 -10 30 -10 60 0 30 -4 57 -10 60 -5 3 -10 26
-10 50 0 24 -4 47 -10 50 -5 3 -10 25 -10 49 0 23 -4 46 -8 52 -5 5 -14 29
-21 54 -7 25 -17 55 -22 68 -5 13 -9 34 -9 47 0 13 -4 27 -10 30 -5 3 -10 15
-10 26 0 10 -4 27 -9 37 -25 46 -51 114 -51 130 0 10 -3 22 -7 25 -4 4 -14 26
-22 50 -21 54 -201 405 -246 477 -19 30 -44 74 -55 96 -11 23 -27 47 -35 54
-8 7 -15 18 -15 25 0 6 -9 20 -20 30 -11 10 -20 24 -20 31 0 7 -14 24 -32 39
-27 23 -37 26 -72 20 -63 -10 -109 -10 -130 0 -13 5 -17 5 -13 -2 9 -14 -61
-79 -72 -67 -5 5 -32 38 -61 74 -243 306 -579 571 -955 755 -489 239 -948 329
-1490 294z m481 -651 c369 -65 722 -267 991 -568 86 -97 219 -286 229 -327 12
-48 -336 -484 -581 -728 -105 -106 -334 -310 -339 -304 -2 2 -14 39 -26 82
-13 44 -29 81 -35 83 -6 3 -31 -2 -55 -11 -23 -8 -45 -13 -47 -11 -2 2 -7 28
-10 58 -5 54 -5 55 28 78 19 13 55 44 82 69 56 54 61 39 12 -42 l-34 -57 36
15 c118 50 241 228 279 403 48 229 -15 423 -194 594 -141 134 -310 196 -512
185 -126 -6 -212 -36 -325 -112 -103 -69 -169 -143 -220 -250 -54 -111 -68
-188 -69 -365 -1 -181 17 -269 85 -407 44 -90 147 -212 167 -199 8 5 9 13 3
24 -13 24 -30 122 -21 122 3 0 17 -12 31 -26 37 -39 136 -102 180 -114 38 -10
39 -12 39 -54 0 -51 -4 -55 -130 -131 l-94 -56 -41 18 c-68 30 -242 140 -339
212 -223 169 -547 534 -780 881 -42 63 -66 102 -52 85 14 -16 27 -27 29 -25 2
3 17 28 33 55 158 276 431 537 705 675 137 68 333 135 457 154 124 20 386 17
518 -6z m1544 -408 c-6 -11 -13 -20 -16 -20 -2 0 0 9 6 20 6 11 13 20 16 20 2
0 0 -9 -6 -20z m150 -107 c0 -9 -12 7 -26 36 -26 51 -27 52 -47 34 -14 -12
-18 -13 -12 -3 22 41 27 41 56 -5 16 -25 29 -53 29 -62z m-190 37 c-6 -11 -13
-20 -16 -20 -2 0 0 9 6 20 6 11 13 20 16 20 2 0 0 -9 -6 -20z m768 -209 c94
-154 193 -345 246 -472 201 -487 293 -1008 257 -1458 -48 -595 -201 -1054
-516 -1541 -148 -229 -482 -596 -705 -773 l-75 -60 -3 312 -2 311 138 138
c198 195 316 340 461 562 226 346 380 759 441 1180 6 47 14 96 16 110 30 192
30 590 -1 755 -57 312 -187 644 -376 961 -27 45 -49 85 -49 90 0 4 12 21 28
37 l27 28 15 -21 c8 -12 52 -83 98 -159z m-4938 107 c0 -5 -28 -52 -62 -106
-194 -305 -339 -750 -378 -1157 -12 -129 -12 -490 1 -590 5 -38 13 -107 19
-151 6 -45 26 -144 45 -220 99 -406 271 -754 527 -1071 l58 -71 0 -344 -1
-343 -53 56 c-193 205 -438 567 -553 819 -84 182 -166 432 -209 637 -87 412
-92 915 -13 1303 89 437 289 916 517 1238 l44 64 29 -28 c16 -15 29 -32 29
-36z m4357 5 c-3 -10 -5 -4 -5 12 0 17 2 24 5 18 2 -7 2 -21 0 -30z m103 -53
c0 -5 -5 -10 -11 -10 -5 0 -7 5 -4 10 3 6 8 10 11 10 2 0 4 -4 4 -10z m-2016
-64 c88 -43 169 -125 211 -214 62 -129 88 -321 65 -481 -11 -78 -43 -185 -58
-195 -4 -2 -5 65 -4 149 3 125 0 170 -17 251 -34 157 -98 272 -210 377 -56 52
-182 117 -227 117 -41 0 -17 19 37 28 61 11 141 -2 203 -32z m2282 -1 c5 -19
-3 -35 -36 -74 -24 -28 -47 -48 -53 -44 -6 3 -7 1 -3 -5 3 -6 2 -13 -4 -17
-16 -10 -23 21 -10 44 6 12 16 18 22 15 7 -4 8 -3 4 4 -8 13 49 102 64 102 5
0 12 -11 16 -25z m-4257 -117 c54 -73 133 -170 175 -216 42 -45 76 -88 76 -95
0 -6 -11 0 -24 15 -13 15 -27 24 -30 21 -6 -6 -10 13 -7 31 1 4 -11 5 -26 1
-33 -8 -31 -8 -63 -6 -20 1 -22 3 -10 11 10 6 11 10 3 10 -18 0 -16 49 2 56 8
4 12 11 9 16 -4 6 -9 6 -14 -2 -4 -7 -10 2 -14 24 -4 23 -13 36 -22 36 -8 0
-13 4 -9 9 3 6 -1 13 -9 18 -8 4 -14 13 -13 18 1 6 -8 14 -20 20 -13 5 -23 19
-23 30 0 17 -2 18 -11 5 -8 -12 -9 -10 -7 10 2 14 -2 25 -9 26 -7 1 -17 2 -23
3 -5 0 -9 4 -8 9 2 13 -15 47 -29 55 -11 7 -10 27 2 27 2 0 49 -60 104 -132z
m3981 112 c0 -5 -5 -10 -11 -10 -5 0 -7 5 -4 10 3 6 8 10 11 10 2 0 4 -4 4
-10z m-4174 -38 c-17 -16 -18 -16 -5 5 7 12 15 20 18 17 3 -2 -3 -12 -13 -22z
m1814 -67 c19 -23 8 -50 -20 -50 -19 0 -26 6 -28 24 -5 35 26 53 48 26z m2767
-125 c63 -133 139 -366 159 -485 19 -121 34 -534 23 -628 -5 -38 -11 -89 -14
-115 -16 -127 -56 -303 -108 -477 -121 -399 -348 -792 -621 -1074 -119 -123
-324 -293 -340 -283 -6 4 -30 20 -53 35 l-42 29 82 61 c107 81 269 238 369
357 494 587 718 1442 587 2228 -13 80 -59 265 -94 381 -14 47 -25 89 -25 95 1
21 33 -31 77 -124z m-4507 51 c0 -10 -49 53 -50 63 0 6 11 -5 25 -24 14 -19
25 -36 25 -39z m231 52 c13 -16 12 -17 -3 -4 -10 7 -18 15 -18 17 0 8 8 3 21
-13z m2476 -66 c37 -25 55 -55 26 -41 -38 16 -108 15 -143 -3 -111 -57 -105
-203 10 -260 l45 -22 -33 -1 c-68 0 -139 54 -163 127 -14 45 2 129 33 169 51
64 155 79 225 31z m1367 -3 c3 -8 2 -12 -4 -9 -6 3 -10 10 -10 16 0 14 7 11
14 -7z m-4043 -21 c13 -16 12 -17 -3 -4 -10 7 -18 15 -18 17 0 8 8 3 21 -13z
m149 -13 c0 -5 -5 -10 -11 -10 -5 0 -7 5 -4 10 3 6 8 10 11 10 2 0 4 -4 4 -10z
m-98 -192 c-1 -5 2 -7 6 -5 5 1 22 -13 38 -32 l29 -35 -28 18 c-15 10 -27 14
-27 8 0 -5 7 -13 16 -16 13 -5 13 -8 2 -20 -7 -7 -19 -23 -27 -34 -8 -12 -18
-19 -23 -16 -4 3 -8 0 -8 -5 0 -6 5 -11 11 -11 6 0 8 -8 4 -19 -3 -11 -1 -22
5 -26 5 -3 10 -14 10 -23 0 -9 -14 10 -30 43 -17 33 -28 66 -25 73 3 7 1 11
-3 8 -11 -7 -55 129 -56 170 -1 18 -4 30 -7 28 -4 -2 -9 9 -11 24 -3 15 -9 36
-13 47 -5 11 25 -23 66 -75 40 -52 73 -98 71 -102z m3990 160 c-9 -9 -15 -9
-24 1 -11 10 -10 11 5 6 10 -5 17 -2 17 6 0 7 3 9 7 6 4 -4 1 -13 -5 -19z
m-4501 -31 c-10 -9 -11 -8 -5 6 3 10 9 15 12 12 3 -3 0 -11 -7 -18z m1117
-149 c71 -95 175 -226 231 -290 56 -65 99 -118 95 -118 -9 0 -212 146 -299
215 -38 31 -104 89 -147 130 l-76 75 18 37 c10 21 24 57 31 81 6 23 14 42 15
42 2 0 62 -78 132 -172z m-578 138 c0 -6 12 -21 27 -33 14 -13 23 -23 20 -23
-4 0 1 -8 11 -18 9 -11 20 -17 25 -15 4 2 12 -8 18 -23 12 -34 188 -205 189
-185 0 3 5 -2 11 -11 12 -22 33 -24 25 -2 -3 8 -2 13 3 10 10 -6 21 28 20 59
-1 16 -2 16 -9 -5 l-8 -25 -1 26 c-1 38 26 45 58 16 158 -144 436 -362 594
-464 37 -24 67 -46 67 -48 0 -4 -74 26 -226 93 -110 49 -322 169 -404 230
-135 100 -267 220 -358 325 -50 57 -84 104 -76 104 8 0 14 -5 14 -11z m2679
-36 c0 -9 -4 -8 -9 5 -5 11 -9 27 -9 35 0 9 4 8 9 -5 5 -11 9 -27 9 -35z m815
21 c28 -54 75 -180 100 -267 l24 -87 -79 -75 c-234 -222 -538 -426 -758 -509
-51 -19 -66 -21 -78 -11 -9 7 -31 19 -50 28 l-34 15 73 61 c199 167 509 510
703 777 39 53 73 97 77 97 4 0 14 -13 22 -29z m-4052 -43 c-8 -8 -9 -4 -5 13
4 13 8 18 11 10 2 -7 -1 -18 -6 -23z m3229 -21 c-10 -9 -11 -8 -5 6 3 10 9 15
12 12 3 -3 0 -11 -7 -18z m-839 -157 c34 -16 68 -30 76 -30 11 0 13 -8 8 -35
l-7 -35 107 0 106 0 -7 -117 c-8 -142 -16 -170 -58 -211 -57 -55 -139 -76
-202 -52 -70 27 -172 154 -223 279 -20 48 -29 101 -18 101 3 0 35 -7 71 -15
37 -9 71 -15 75 -13 4 2 -9 32 -31 67 -40 66 -71 140 -84 200 -7 32 -5 31 60
-37 44 -47 87 -82 127 -102z m-2401 129 c-5 -13 -10 -19 -10 -12 -1 15 10 45
15 40 3 -2 0 -15 -5 -28z m250 -38 c-7 -5 -5 -13 7 -23 9 -9 22 -23 27 -30 52
-68 145 -170 175 -191 11 -8 27 -35 34 -62 l15 -48 -35 34 c-81 77 -111 105
-129 120 -32 25 -108 118 -128 156 -23 44 -17 62 18 55 15 -2 22 -8 16 -11z
m2979 15 c0 -2 -8 -10 -17 -17 -16 -13 -17 -12 -4 4 13 16 21 21 21 13z
m-2314 -74 c-6 -6 -46 31 -58 53 -6 12 4 6 26 -14 19 -19 34 -36 32 -39z
m-1004 -44 c-8 -8 -9 -4 -5 13 4 13 8 18 11 10 2 -7 -1 -18 -6 -23z m51 -25
c-3 -18 -9 -33 -13 -33 -5 0 -4 15 1 32 5 18 9 35 9 37 0 2 2 2 4 0 2 -2 1
-19 -1 -36z m4537 17 c0 -5 -4 -10 -10 -10 -5 0 -10 5 -10 10 0 6 5 10 10 10
6 0 10 -4 10 -10z m-3775 -40 c10 -11 16 -20 13 -20 -3 0 -13 9 -23 20 -10 11
-16 20 -13 20 3 0 13 -9 23 -20z m3643 -51 c-15 -28 -24 -36 -26 -25 -2 9 -8
14 -13 11 -5 -3 -6 1 -3 9 3 9 10 16 16 16 5 0 6 -4 3 -10 -3 -5 -1 -10 4 -10
10 0 13 7 10 26 -1 6 21 23 29 24 2 0 -7 -19 -20 -41z m282 37 c0 -3 -4 -8
-10 -11 -5 -3 -10 -1 -10 4 0 6 5 11 10 11 6 0 10 -2 10 -4z m-4763 -28 c-3
-8 -6 -5 -6 6 -1 11 2 17 5 13 3 -3 4 -12 1 -19z m60 -10 c-3 -8 -6 -5 -6 6
-1 11 2 17 5 13 3 -3 4 -12 1 -19z m630 -29 c2 -16 -1 -19 -9 -11 -5 5 -7 15
-4 21 10 15 12 14 13 -10z m3750 -46 c-3 -10 -5 -2 -5 17 0 19 2 27 5 18 2
-10 2 -26 0 -35z m-4471 -45 c-10 -68 -24 -125 -25 -104 -1 26 20 146 26 146
3 0 2 -19 -1 -42z m70 -16 c-4 -3 -12 0 -18 6 -9 9 -9 12 0 12 7 0 11 3 11 8
-1 4 0 14 1 22 2 8 5 2 7 -13 3 -16 2 -31 -1 -35z m1047 -5 c167 -115 367
-219 580 -301 53 -21 97 -42 97 -46 0 -9 -144 -146 -176 -167 -19 -12 -34 -9
-138 27 -130 45 -304 128 -411 198 -86 55 -95 66 -84 106 4 17 13 79 20 139 6
59 14 107 15 107 2 0 46 -29 97 -63z m3245 26 c-1 -10 2 -35 7 -55 l7 -37 -68
-44 c-89 -57 -304 -165 -304 -153 0 2 48 44 108 94 59 49 136 117 172 150 36
34 68 61 72 62 4 0 6 -8 6 -17z m-3563 -32 c-3 -2 3 -13 12 -24 10 -11 13 -17
6 -13 -7 3 -22 20 -34 37 -21 30 -21 31 -1 18 12 -7 19 -15 17 -18z m-748
-103 c-2 -13 -4 -5 -4 17 -1 22 1 32 4 23 2 -10 2 -28 0 -40z m-87 -68 l-11
-25 6 25 c2 14 5 36 6 50 l2 25 4 -25 c2 -14 -1 -37 -7 -50z m77 -17 c-3 -10
-5 -4 -5 12 0 17 2 24 5 18 2 -7 2 -21 0 -30z m803 12 c7 -9 8 -15 2 -15 -5 0
-12 7 -16 15 -3 8 -4 15 -2 15 2 0 9 -7 16 -15z m3536 -17 c-16 -103 -16 -118
-4 -118 9 0 8 -3 -2 -10 -13 -9 -70 -14 -70 -7 0 1 9 28 20 60 11 31 20 62 20
70 0 15 20 37 32 37 5 0 7 -15 4 -32z m-4106 -2 c0 -2 -7 -6 -15 -10 -8 -3
-15 -1 -15 4 0 6 7 10 15 10 8 0 15 -2 15 -4z m-230 -113 l0 -63 -50 0 -50 0
0 55 c0 43 5 60 21 76 16 16 23 18 29 9 5 -9 10 -6 15 10 l7 23 14 -24 c7 -13
13 -52 14 -86z m349 56 c137 -67 247 -98 388 -112 21 -3 40 -13 54 -31 12 -15
20 -29 18 -31 -2 -2 -29 3 -59 10 -30 8 -100 25 -156 39 -107 26 -125 33 -219
77 -33 16 -65 29 -70 29 -25 1 -73 60 -48 60 3 0 45 -19 92 -41z m3891 35 c0
-4 -8 -29 -17 -56 l-18 -50 -52 6 c-103 12 -105 18 -12 63 87 43 99 47 99 37z
m702 -116 c-8 -8 -9 -4 -5 13 4 13 8 18 11 10 2 -7 -1 -18 -6 -23z m-3909 -30
c46 -29 111 -66 144 -83 55 -28 61 -34 76 -80 8 -27 14 -52 11 -54 -6 -6 -124
19 -191 41 -69 23 -133 70 -133 98 0 12 -5 17 -13 14 -7 -2 -26 9 -42 26 l-29
30 42 0 c40 0 41 1 37 30 -2 17 0 30 5 30 5 0 47 -24 93 -52z m2999 8 c35 -8
80 -17 101 -20 l37 -7 -15 -28 c-38 -74 -450 -173 -590 -142 -31 7 -53 17 -49
21 12 11 426 189 441 190 6 0 40 -6 75 -14z m-969 -35 c3 -16 9 -42 13 -57 l7
-29 -26 24 c-14 13 -32 21 -39 19 -7 -3 -49 -32 -93 -65 -44 -32 -111 -81
-150 -107 -118 -82 -272 -206 -365 -293 -75 -71 -210 -242 -294 -374 -16 -25
-14 -28 72 -170 124 -203 139 -224 163 -224 19 0 26 -15 55 -123 19 -68 36
-128 40 -133 3 -5 -5 -9 -18 -9 -19 1 -30 17 -68 97 -25 53 -94 178 -154 277
-60 100 -120 200 -133 223 l-24 42 27 43 c137 216 331 430 519 570 272 203
433 316 451 317 6 1 14 -12 17 -28z m-1233 -11 c0 -15 30 -123 46 -164 5 -14
-119 -4 -188 14 l-37 11 82 83 c45 45 85 81 90 79 4 -2 7 -12 7 -23z m2426 -5
c-11 -8 -22 -12 -25 -9 -6 6 19 24 34 24 6 -1 1 -7 -9 -15z m-2279 -49 c37
-24 96 -58 131 -75 95 -48 85 -61 -47 -61 l-109 0 -30 90 c-17 50 -27 90 -22
90 5 0 40 -20 77 -44z m2334 -98 c-11 -84 -56 -295 -72 -335 -7 -20 -16 -23
-61 -24 -29 -1 -69 -2 -88 -3 -48 -2 -209 20 -245 34 l-29 11 67 40 c112 67
223 181 279 288 19 35 34 47 88 71 77 34 77 35 61 -82z m-4271 48 c0 -13 3
-31 6 -40 5 -12 -10 -9 -65 13 -115 48 -116 50 -23 51 80 0 82 -1 82 -24z
m1363 -31 c75 -20 73 -29 -7 -44 -49 -9 -53 -7 -74 43 -10 23 -10 27 0 24 7
-3 44 -13 81 -23z m1911 -3 c3 -5 -20 -19 -50 -32 -65 -26 -143 -100 -170
-159 -14 -30 -25 -41 -42 -41 -20 0 -22 4 -16 23 17 56 36 89 75 132 78 85
175 121 203 77z m760 -29 c-49 -66 -142 -150 -230 -209 -47 -31 -86 -54 -88
-53 -1 2 -7 26 -14 53 -7 27 -28 71 -47 97 -19 25 -35 49 -35 53 0 3 17 6 38
6 53 0 256 44 332 72 36 14 67 23 69 21 2 -1 -9 -19 -25 -40z m-3831 -13 c29
-53 33 -70 17 -70 -5 0 -9 5 -7 12 1 7 -5 12 -13 13 -8 0 -15 7 -15 15 -1 8
-6 25 -13 37 -7 12 -12 26 -12 32 0 24 18 8 43 -39z m773 0 c24 -11 56 -25 71
-31 34 -13 193 -40 203 -34 7 4 147 -132 139 -138 -16 -12 -158 -69 -224 -90
-137 -43 -146 -43 -160 2 -4 13 -14 40 -23 60 -8 20 -16 43 -17 51 -1 8 -9 40
-18 70 -19 69 -30 130 -22 130 3 0 26 -9 51 -20z m653 -30 c20 0 -153 -130
-173 -130 -13 0 -96 83 -96 96 0 8 10 14 23 14 12 0 51 11 87 24 59 21 69 22
110 9 25 -7 47 -13 49 -13z m-1666 -66 c10 -48 3 -67 -12 -31 -6 15 -15 27
-21 27 -5 0 -10 7 -10 15 0 10 -10 15 -26 15 -21 0 -25 -4 -21 -20 3 -11 1
-22 -3 -25 -4 -3 -10 17 -12 43 l-3 49 50 -18 c45 -16 51 -21 58 -55z m3513
47 c85 -39 154 -128 154 -201 0 -27 -3 -30 -30 -30 -25 0 -32 6 -45 37 -21 50
-52 82 -100 104 -68 31 -143 20 -217 -32 -26 -19 -98 -26 -98 -10 0 20 92 110
132 129 56 27 148 28 204 3z m-1656 -16 c45 -5 45 -6 88 -90 24 -46 55 -101
68 -121 l25 -37 -113 6 c-68 3 -140 13 -180 25 -74 22 -188 71 -188 81 0 4 41
35 90 70 50 35 93 67 95 72 3 4 20 6 38 4 17 -3 52 -7 77 -10z m-1570 -15 c0
-5 -5 -10 -11 -10 -5 0 -7 5 -4 10 3 6 8 10 11 10 2 0 4 -4 4 -10z m1774 1
c18 -1 17 -4 -8 -30 -16 -16 -25 -34 -22 -40 4 -6 4 -11 -1 -11 -9 1 -43 65
-43 81 0 5 12 8 28 5 15 -2 36 -5 46 -5z m-1819 -11 c-3 -5 -10 -10 -16 -10
-5 0 -9 5 -9 10 0 6 7 10 16 10 8 0 12 -4 9 -10z m2733 -15 c-8 -18 -17 -24
-27 -19 -9 3 -29 11 -44 16 -38 14 -18 28 40 28 42 0 42 0 31 -25z m1752 15
c0 -5 -5 -10 -11 -10 -5 0 -7 5 -4 10 3 6 8 10 11 10 2 0 4 -4 4 -10z m-2470
-19 c0 -20 -25 -35 -41 -26 -12 8 -1 -48 22 -109 10 -28 17 -52 15 -54 -7 -7
-136 125 -136 139 0 17 87 68 118 68 15 1 22 -5 22 -18z m-1921 -32 c18 -22
30 -43 27 -46 -3 -3 -8 2 -12 11 -3 9 -12 16 -20 16 -8 0 -14 9 -14 20 0 11
-5 20 -11 20 -5 0 -7 -4 -4 -10 3 -5 2 -10 -4 -10 -5 0 -9 9 -8 20 2 29 9 25
46 -21z m-65 19 c-3 -4 -9 -8 -15 -8 -5 0 -9 4 -9 8 0 5 7 9 15 9 8 0 12 -4 9
-9z m-347 -61 l1 -52 -9 40 c-8 33 -7 65 3 65 2 0 4 -24 5 -53z m4711 -19
c-31 -29 -45 -47 -33 -44 11 3 54 12 95 20 64 12 124 31 224 72 15 6 18 4 13
-9 -3 -8 -1 -18 6 -20 7 -3 -1 -8 -18 -11 -16 -4 -41 -12 -55 -18 -14 -7 -28
-11 -32 -10 -5 1 -8 -2 -8 -6 0 -4 -8 -8 -17 -9 -10 -1 -49 -9 -88 -18 -38 -9
-80 -18 -92 -21 -12 -2 -33 -8 -47 -14 -13 -5 -27 -6 -30 -3 -3 4 -6 2 -6 -3
0 -9 -21 -14 -67 -14 -13 0 -23 -4 -23 -9 0 -5 -15 -11 -32 -14 -18 -3 -42 -8
-53 -12 -11 -3 8 7 41 23 65 31 156 91 213 139 58 50 66 33 9 -19z m-4612 -28
c9 -62 78 -307 116 -410 17 -47 51 -127 74 -179 24 -51 41 -98 37 -105 -3 -6
-3 -8 2 -4 4 4 30 -31 57 -79 62 -108 179 -283 230 -345 23 -28 36 -52 32 -59
-5 -8 -3 -9 5 -5 17 11 44 -26 28 -37 -8 -5 -4 -7 8 -5 14 2 21 -3 23 -19 2
-13 8 -23 13 -23 6 0 7 6 3 13 -3 6 12 -8 35 -32 22 -24 38 -48 34 -54 -3 -5
-1 -7 4 -4 6 4 20 -1 32 -11 l21 -17 -29 -34 c-22 -26 -33 -32 -47 -26 -13 5
-15 9 -6 12 6 3 10 9 6 14 -3 5 0 9 5 9 6 0 11 -7 11 -16 0 -12 6 -10 21 10
11 14 17 30 14 36 -7 12 -26 14 -24 3 4 -22 -3 -32 -17 -26 -9 3 -20 0 -24 -7
-9 -14 -73 43 -150 134 -32 38 -39 51 -28 58 10 8 9 9 -4 4 -21 -6 -69 49
-170 199 -90 133 -155 251 -226 410 -63 140 -135 353 -128 378 2 9 1 15 -4 12
-4 -2 -12 14 -18 38 -31 117 -31 116 -16 110 10 -4 12 0 8 11 -3 9 -10 13 -15
10 -5 -3 -9 -1 -9 5 0 31 50 11 50 -21 1 -9 5 -7 14 4 7 10 16 15 19 11 4 -3
7 -1 7 5 0 7 -3 12 -7 12 -5 0 -8 20 -8 44 0 53 12 39 21 -24z m2858 9 c38
-45 34 -84 -11 -107 -68 -37 -128 69 -67 117 36 28 48 27 78 -10z m-2199 -87
c39 -16 79 -32 90 -35 12 -3 5 -5 -17 -6 -45 -1 -110 26 -186 78 -82 55 -97
79 -21 33 35 -22 96 -53 134 -70z m957 -6 c84 -32 213 -56 299 -56 191 0 -10
-78 -261 -101 -110 -10 -285 -7 -385 6 -16 3 -59 7 -95 11 -73 7 -110 25 -110
54 0 14 7 20 23 20 65 0 341 106 361 138 4 8 23 1 55 -18 26 -16 77 -41 113
-54z m1052 21 c13 -70 95 -137 166 -137 25 0 30 -3 26 -17 -3 -10 -8 -34 -11
-54 l-7 -36 -151 -42 c-84 -23 -227 -65 -320 -93 -92 -28 -170 -48 -173 -45
-9 9 19 42 166 195 145 150 266 262 285 262 7 0 16 -15 19 -33z m372 -75 c1
-124 76 -242 201 -317 1 -1 -2 -18 -8 -38 -9 -34 -11 -36 -35 -26 -73 27 -151
110 -137 146 3 7 -9 35 -27 63 -38 59 -60 127 -60 185 0 49 4 55 39 55 25 0
26 -2 27 -68z m97 28 c-3 -11 -7 -20 -9 -20 -2 0 -4 9 -4 20 0 11 4 20 9 20 5
0 7 -9 4 -20z m687 -30 c19 -6 12 -8 -32 -9 -51 -1 -58 1 -58 18 0 21 2 20 90
-9z m-664 -33 c9 3 14 -1 14 -12 0 -9 -4 -13 -10 -10 -5 3 -10 1 -10 -4 0 -14
27 -14 35 -1 3 5 1 19 -5 30 -6 11 -7 20 -1 20 5 0 11 -10 15 -23 3 -12 22
-42 43 -66 86 -102 218 -108 299 -14 18 22 23 23 47 12 15 -7 27 -17 27 -22 0
-14 -67 -75 -103 -93 -40 -21 -132 -29 -182 -15 -42 11 -128 61 -119 70 2 2 9
0 15 -6 6 -6 18 -9 26 -6 12 5 12 7 1 14 -10 7 -10 9 0 9 6 0 12 5 12 10 0 6
-7 10 -16 10 -8 0 -13 4 -10 9 3 5 -1 12 -10 15 -12 5 -15 2 -10 -9 3 -10 2
-14 -5 -9 -6 3 -8 17 -4 31 4 17 2 23 -5 18 -8 -5 -9 -20 -5 -43 6 -31 5 -34
-9 -23 -21 17 -56 93 -55 117 1 16 2 16 6 2 2 -10 10 -15 19 -11z m1014 -7 c0
-5 -13 -37 -29 -70 -16 -33 -27 -60 -25 -60 2 0 -7 -18 -21 -40 -14 -22 -25
-44 -25 -49 0 -20 -22 -22 -73 -5 -63 20 -173 75 -245 120 -46 30 -51 37 -42
54 10 18 21 20 113 21 56 0 147 8 202 19 119 21 145 23 145 10z m-2326 -111
c-70 -75 -345 -227 -467 -259 -45 -12 -48 -12 -66 11 -10 13 -31 38 -45 54
-41 47 -100 126 -126 169 l-24 39 40 -7 c209 -37 585 -32 678 9 17 7 33 14 35
14 3 1 -8 -13 -25 -30z m111 -76 c-23 -78 -55 -140 -107 -201 -46 -55 -200
-181 -258 -212 -19 -10 -47 -30 -61 -44 -45 -44 -149 -93 -323 -151 -82 -27
-289 -48 -256 -26 8 5 11 14 6 18 -4 4 -14 -1 -22 -11 -8 -11 -14 -14 -14 -8
0 15 -27 16 -32 2 -8 -25 -273 -41 -296 -18 -7 7 -12 14 -12 17 0 4 55 6 123
7 132 0 189 7 252 30 22 9 47 16 55 17 8 1 18 7 22 12 5 6 8 4 8 -5 1 -8 5 -5
11 8 5 14 13 20 20 16 8 -4 9 -3 5 4 -7 11 32 38 47 34 5 -1 6 1 3 6 -3 5 15
29 41 53 l45 44 -20 -40 c-26 -51 -76 -100 -93 -90 -7 5 -10 4 -5 -3 4 -6 -14
-25 -40 -43 -26 -18 -44 -27 -40 -21 3 6 2 13 -3 16 -13 9 -22 -9 -15 -28 4
-11 11 -13 22 -7 10 5 79 23 154 40 76 17 167 44 204 61 37 17 69 28 72 25 3
-2 10 2 16 10 6 7 17 15 25 17 7 2 24 12 37 23 l23 20 -86 87 c-48 48 -85 89
-82 91 2 3 30 12 62 21 124 36 351 168 462 269 69 63 78 56 50 -40z m1801 3
c66 -37 156 -77 246 -109 11 -4 15 -12 11 -22 -7 -21 -52 -14 -138 22 -78 32
-215 114 -215 128 0 10 9 25 16 25 1 0 37 -20 80 -44z m-2775 -9 c-10 -9 -11
-8 -5 6 3 10 9 15 12 12 3 -3 0 -11 -7 -18z m60 -72 c5 4 9 1 9 -4 0 -6 -3
-11 -7 -11 -11 0 -43 32 -43 44 0 6 7 0 16 -12 8 -12 20 -20 25 -17z m2605
-12 c21 -27 81 -92 133 -145 l94 -98 -46 -53 -45 -53 56 -22 c81 -31 172 -52
228 -53 27 0 81 -7 119 -14 l70 -14 -125 3 c-148 5 -285 34 -345 74 -22 14
-64 36 -94 49 -30 12 -57 26 -61 30 -9 10 -110 278 -110 292 0 9 65 49 81 51
4 0 24 -21 45 -47z m-2541 -51 c-21 -5 -55 26 -49 43 4 8 14 4 35 -14 23 -20
26 -27 14 -29z m2325 8 c0 -33 -35 -60 -79 -60 l-38 0 10 40 c11 40 12 40 59
40 41 0 48 -3 48 -20z m491 -61 c21 -7 39 -16 39 -20 0 -4 -11 -20 -24 -36
l-24 -28 -83 82 -84 82 69 -34 c37 -19 86 -40 107 -46z m-2737 21 c9 0 14 -4
11 -10 -9 -14 -21 -12 -39 5 -8 9 -18 16 -21 15 -25 -1 -29 1 -15 10 10 6 20
4 31 -6 8 -7 23 -14 33 -14z m2970 -5 c3 3 2 0 -3 -6 -6 -8 -23 -5 -55 9 -61
27 -59 35 3 12 27 -11 51 -17 55 -15z m-2914 -21 c0 -2 -9 -4 -21 -4 -11 0
-18 4 -14 10 5 8 35 3 35 -6z m3015 1 c118 -25 263 -35 381 -25 60 4 111 6
113 4 30 -29 -229 -46 -380 -24 -54 8 -86 17 -82 23 3 6 1 7 -6 3 -15 -9 -122
14 -115 26 7 10 6 10 89 -7z m-720 -153 c-2 -2 -19 7 -39 20 -29 19 -34 28
-30 48 15 65 16 65 44 -1 15 -35 26 -65 25 -67z m-379 16 c3 -11 4 -21 2 -23
-1 -1 -31 14 -65 34 -44 25 -61 40 -56 51 3 8 6 20 6 27 1 17 105 -65 113 -89z
m-1290 6 c-20 -58 -105 -224 -114 -224 -5 0 -17 6 -28 14 -14 11 -16 19 -9 30
36 53 160 224 163 222 1 -2 -4 -21 -12 -42z m132 -159 c-5 -77 -10 -145 -13
-152 -3 -8 -13 -9 -36 -3 -17 5 -33 11 -35 13 -4 4 74 264 83 280 9 15 9 2 1
-138z m1043 47 c-51 -4 -62 4 -50 36 l9 23 42 -28 42 -28 -43 -3z m-1352 -2
c-40 -47 -59 -57 -65 -34 -3 7 87 78 104 83 2 1 -16 -22 -39 -49z m1631 5 c6
4 10 -1 10 -11 0 -15 -2 -15 -22 -2 -13 8 -29 18 -36 22 -7 4 -10 11 -7 16 3
5 15 0 26 -11 11 -11 24 -17 29 -14z m213 14 c35 -17 50 -33 71 -77 l27 -55
-29 -30 -30 -30 -20 39 c-18 36 -72 163 -72 171 0 6 10 3 53 -18z m168 -64 c1
-17 -18 -17 -25 0 -4 11 -1 15 10 13 8 -2 15 -7 15 -13z m-1847 -68 c-9 -26
-20 -47 -25 -47 -13 0 -12 4 13 55 27 56 33 53 12 -8z m1185 17 c72 -16 84
-28 62 -63 -7 -11 -19 -12 -75 -1 -83 17 -89 21 -80 53 7 32 3 31 93 11z m241
-13 l24 -19 -41 -134 c-23 -74 -56 -171 -73 -216 l-32 -82 -31 16 c-18 9 -33
18 -35 19 -7 6 142 435 152 435 6 0 22 -9 36 -19z m272 -231 c70 -121 127
-203 215 -312 34 -42 59 -78 55 -81 -4 -2 -2 -3 4 -1 14 3 76 -60 69 -69 -3
-4 -2 -5 2 -2 11 8 33 -16 33 -36 0 -16 -8 -19 -56 -19 -52 0 -56 1 -66 30
-10 29 -59 66 -71 54 -8 -8 2 -33 25 -66 11 -16 15 -28 10 -28 -9 0 -57 88
-57 107 0 6 -4 15 -9 20 -5 4 -6 3 -2 -4 4 -7 5 -13 2 -13 -11 0 -43 75 -38
89 2 8 0 11 -5 8 -20 -12 -193 387 -217 498 -4 23 0 18 20 -20 14 -27 53 -97
86 -155z m-546 89 c52 -13 57 -19 45 -52 -9 -24 -11 -25 -48 -11 -21 7 -53 13
-70 14 -33 0 -40 11 -27 44 7 19 38 20 100 5z m-866 -70 c0 -57 -6 -73 -81
-219 -68 -135 -83 -157 -100 -153 -10 3 -22 9 -24 14 -3 4 27 72 66 151 54
106 73 156 76 193 6 69 9 75 38 75 24 0 25 -2 25 -61z m319 -113 c-2 -2 -16
-6 -31 -10 -21 -5 -28 -3 -28 9 0 8 0 18 -1 23 0 4 10 10 23 13 16 4 26 0 32
-13 5 -10 7 -20 5 -22z m511 19 c36 -12 46 -30 31 -53 -7 -12 -19 -11 -67 4
-73 22 -68 18 -60 49 7 27 16 27 96 0z m-125 -184 l68 -84 -24 -18 c-13 -11
-83 -59 -155 -108 l-131 -89 -128 39 c-70 21 -129 40 -131 42 -6 5 419 308
427 305 4 -2 37 -41 74 -87z m-1635 48 c47 -12 138 -36 202 -55 65 -19 119
-34 122 -34 6 0 99 -151 95 -154 -2 -2 -42 13 -89 33 -53 23 -98 50 -120 73
-32 32 -133 79 -145 67 -2 -3 6 -37 18 -76 20 -70 22 -73 66 -92 25 -11 98
-44 161 -75 124 -59 135 -68 502 -401 284 -258 626 -535 806 -653 139 -91 399
-212 457 -212 8 0 29 -13 47 -28 39 -33 97 -69 153 -96 l40 -18 -55 -14 c-30
-7 -64 -13 -75 -14 -21 0 -300 107 -560 216 -369 153 -822 395 -1415 754 -157
95 -327 198 -379 229 -117 70 -211 156 -245 224 -46 91 -29 201 42 272 85 86
181 100 372 54z m478 -166 c10 -16 23 -35 27 -43 8 -13 7 -13 -9 -1 -25 21
-59 71 -47 71 5 0 18 -12 29 -27z m218 -46 c54 -19 132 -42 173 -53 73 -18 74
-19 122 -87 42 -61 116 -213 107 -222 -2 -2 -78 20 -168 49 l-165 53 -25 49
c-14 27 -54 91 -88 143 -59 90 -66 101 -59 101 2 0 48 -15 103 -33z m2099
-122 l30 -26 -27 12 c-16 7 -28 16 -28 20 0 4 -9 11 -20 14 -11 3 -20 11 -20
16 0 12 24 -2 65 -36z m-184 -30 c5 3 6 -2 2 -11 -5 -13 -3 -15 8 -9 8 4 11 5
7 0 -4 -4 -2 -17 4 -29 13 -26 1 -13 -35 36 -15 20 -27 40 -27 45 0 4 7 -3 16
-15 8 -12 20 -20 25 -17z m-3176 -193 c98 -104 293 -294 389 -377 l34 -30 -59
-234 c-32 -129 -60 -235 -62 -238 -9 -8 -265 180 -366 270 l-111 97 0 339 c0
186 3 341 7 345 4 4 19 -7 33 -24 14 -16 75 -83 135 -148z m2015 103 c224 -72
335 -105 353 -105 15 0 184 -217 175 -225 -2 -2 -51 9 -109 26 -78 23 -486
119 -503 119 -2 0 -11 21 -21 48 -10 26 -40 80 -67 120 -26 41 -48 75 -48 78
0 7 45 -5 220 -61z m2790 -12 c-1 -44 -22 -78 -45 -70 -20 8 -19 42 2 78 24
41 43 37 43 -8z m-1171 -34 c-15 -9 -32 -2 -24 11 3 5 13 6 21 3 12 -4 13 -8
3 -14z m-1028 1 c29 -16 26 -67 -5 -81 -34 -16 -66 3 -66 41 0 41 33 60 71 40z
m1082 -13 l26 -14 -37 -34 c-20 -19 -66 -59 -102 -89 -36 -29 -75 -62 -86 -72
-21 -19 -22 -19 -50 7 -20 19 -24 28 -16 35 7 6 10 7 7 3 -7 -9 25 -43 40 -43
7 0 15 7 19 15 3 8 13 15 23 15 15 0 16 2 3 11 -13 8 -12 9 4 7 10 -2 21 3 24
11 3 8 0 11 -7 7 -17 -11 -13 0 6 15 11 10 14 10 9 2 -16 -28 16 -11 59 30 25
24 47 42 49 39 3 -2 10 6 16 18 10 18 8 24 -7 36 -23 17 -13 18 20 1z m-4765
-82 c-3 -3 -9 2 -12 12 -6 14 -5 15 5 6 7 -7 10 -15 7 -18z m4413 -2 c13 -16
12 -17 -3 -4 -17 13 -22 21 -14 21 2 0 10 -8 17 -17z m-4427 -19 c9 -24 2 -26
-12 -4 -7 11 -8 20 -3 20 5 0 12 -7 15 -16z m34 -19 c-3 -3 -9 2 -12 12 -6 14
-5 15 5 6 7 -7 10 -15 7 -18z m4447 -23 c-3 -3 -11 0 -18 7 -9 10 -8 11 6 5
10 -3 15 -9 12 -12z m-4451 -1 c3 -5 -1 -11 -9 -14 -9 -4 -12 -1 -8 9 6 16 10
17 17 5z m76 -138 c0 -3 -7 0 -15 7 -8 7 -12 16 -9 21 3 5 -3 9 -13 9 -15 0
-16 2 -3 10 8 5 10 10 5 10 -6 0 -12 12 -13 28 -1 21 4 14 23 -26 14 -30 25
-56 25 -59z m-60 69 c0 -8 -1 -13 -3 -11 -1 2 -9 12 -16 22 -12 15 -12 17 3
11 9 -3 16 -13 16 -22z m61 -87 c5 0 9 -4 8 -9 0 -5 5 -13 13 -17 10 -7 9 -9
-4 -9 -10 0 -18 -6 -18 -12 -1 -15 -49 72 -49 87 0 6 9 -1 20 -15 12 -14 25
-25 30 -25z m4557 -577 c-94 -59 -273 -156 -278 -151 -10 11 -150 462 -150
481 0 4 30 23 68 41 63 31 185 109 312 199 l55 40 3 -301 c2 -234 -1 -303 -10
-309z m-4293 565 c74 -59 178 -163 211 -213 34 -51 62 -136 48 -150 -5 -5 -27
-10 -49 -12 l-40 -3 -3 -67 c-3 -77 -8 -81 -67 -42 l-40 27 39 -41 c21 -22 35
-45 32 -51 -4 -6 -1 -9 7 -6 7 3 22 -4 33 -16 10 -13 13 -19 7 -15 -10 5 -11
1 -4 -16 6 -15 17 -23 32 -23 21 0 119 -58 119 -70 0 -9 -33 9 -58 31 -14 13
-37 24 -51 24 -20 0 -22 -3 -11 -9 8 -6 19 -7 25 -4 5 4 7 3 3 -2 -4 -4 2 -16
14 -26 11 -11 17 -19 13 -19 -18 0 -145 112 -139 122 4 6 3 8 -4 5 -23 -15
-202 206 -305 375 -25 42 -33 64 -26 69 9 5 9 15 1 35 -5 16 -13 38 -17 49 -4
11 11 -8 33 -43 45 -72 62 -91 38 -45 -9 18 -16 46 -16 64 0 34 -2 33 71 17
10 -2 15 9 17 45 4 60 21 61 87 10z m-239 -69 c3 -16 10 -34 16 -41 6 -7 6
-13 1 -13 -13 0 -41 62 -35 78 6 18 12 10 18 -24z m1521 -242 c38 -32 116 -97
176 -146 59 -48 107 -92 107 -98 0 -17 -90 -262 -100 -272 -11 -11 -93 25
-245 107 -60 32 -112 61 -114 63 -6 6 97 404 105 404 2 0 34 -26 71 -58z
m2620 -335 c19 -60 33 -110 31 -111 -8 -8 -54 -30 -127 -61 l-78 -33 -89 42
c-49 23 -120 62 -157 85 -37 24 -102 54 -143 67 -101 32 -181 67 -283 122
l-86 47 80 7 c184 17 443 86 624 166 l106 48 43 -135 c24 -75 59 -185 79 -244z
m-4071 307 c47 -32 105 -164 72 -164 -21 0 -52 37 -87 103 -39 72 -34 93 15
61z m2137 -268 c40 -36 164 -144 277 -242 113 -97 214 -185 225 -195 19 -18
17 -18 -50 -13 -228 17 -482 60 -494 83 -5 9 -14 95 -20 191 -7 96 -15 190
-18 208 -3 17 -2 32 2 32 3 0 39 -29 78 -64z m-1758 -6 c3 -5 2 -10 -4 -10 -5
0 -13 5 -16 10 -3 6 -2 10 4 10 5 0 13 -4 16 -10z m1600 -12 c2 -7 8 -86 12
-176 l8 -162 -30 6 c-38 8 -245 81 -253 88 -5 6 28 93 80 214 l19 42 80 0 c55
0 81 -4 84 -12z m-1265 -30 c19 0 47 3 62 7 24 6 34 1 73 -38 45 -46 59 -90
33 -100 -57 -21 -298 71 -298 113 0 14 46 29 70 24 14 -4 41 -6 60 -6z m-5
-135 c45 -15 58 -22 35 -19 -45 5 -64 10 -70 16 -3 3 -21 13 -40 23 -37 19
-35 18 75 -20z m2246 -48 c127 -48 245 -89 261 -92 29 -6 30 -7 24 -47 -4 -23
-11 -45 -16 -50 -8 -8 -209 -35 -270 -35 -33 -1 -39 5 -102 92 -92 126 -149
217 -138 217 5 0 113 -38 241 -85z m-2371 55 c0 -5 -2 -10 -4 -10 -3 0 -8 5
-11 10 -3 6 -1 10 4 10 6 0 11 -4 11 -10z m807 -137 c25 -24 49 -43 53 -43 4
0 15 -9 25 -20 18 -20 18 -20 1 -14 -11 4 -21 2 -26 -7 -7 -11 -14 -9 -34 10
-14 13 -23 28 -19 34 3 6 1 7 -4 4 -9 -6 -123 103 -123 118 0 12 82 -41 127
-82z m2775 30 c-6 -2 -10 -8 -8 -11 2 -4 -8 -8 -22 -9 l-27 -1 25 14 c14 7 30
13 35 13 6 0 4 -3 -3 -6z m-28 -68 c-4 -8 -11 -12 -16 -9 -6 4 -5 10 3 15 19
12 19 11 13 -6z m-724 -19 c49 -15 51 -14 -47 -35 -45 -9 -46 -9 -37 27 7 25
22 27 84 8z m-1802 -5 c10 -6 9 -11 -4 -22 -12 -9 -15 -10 -10 -1 13 22 -22
25 -53 3 -16 -12 -35 -21 -43 -21 -17 0 62 48 82 49 8 0 21 -3 28 -8z m-41
-47 c-3 -3 -12 -4 -19 -1 -8 3 -5 6 6 6 11 1 17 -2 13 -5z m133 -114 c0 -3 -5
-11 -12 -18 -9 -9 -9 -12 -1 -12 7 0 15 5 18 10 3 6 14 10 23 10 12 -1 10 -5
-8 -15 -14 -8 -19 -14 -11 -15 8 0 12 -3 9 -6 -4 -3 -16 0 -28 6 -17 9 -19 15
-11 23 9 9 6 16 -11 30 l-23 18 28 -12 c15 -7 27 -15 27 -19z m95 -40 c3 -5
-1 -10 -9 -10 -9 0 -16 5 -16 10 0 6 4 10 9 10 6 0 13 -4 16 -10z m40 -18 c-3
-3 -11 0 -18 7 -9 10 -8 11 6 5 10 -3 15 -9 12 -12z m532 7 c-14 -8 -22 -8
-30 0 -8 8 -3 11 19 11 25 -1 27 -2 11 -11z m687 5 c9 -3 16 -11 16 -16 0 -6
-7 -5 -15 2 -13 11 -14 10 -9 -4 9 -23 -3 -20 -16 4 -11 21 -4 25 24 14z
m-1276 -20 c18 -8 32 -17 32 -20 0 -5 -71 24 -79 31 -10 11 18 4 47 -11z
m1136 -14 c20 0 27 -4 23 -14 -4 -9 1 -17 11 -19 13 -4 13 -5 2 -6 -8 0 -37
11 -65 24 -27 14 -39 23 -25 20 14 -2 38 -5 54 -5z m-1057 -16 c-3 -3 -12 -4
-19 -1 -8 3 -5 6 6 6 11 1 17 -2 13 -5z m213 -8 c0 -2 -7 -6 -15 -10 -8 -3
-15 -1 -15 4 0 6 7 10 15 10 8 0 15 -2 15 -4z m-57 -23 c-7 -2 -21 -2 -30 0
-10 3 -4 5 12 5 17 0 24 -2 18 -5z"/>
<path d="M1830 5866 c0 -2 8 -10 18 -17 15 -13 16 -12 3 4 -13 16 -21 21 -21
13z"/>
<path d="M2033 5588 c0 -13 1 -17 4 -10 3 6 10 9 16 5 7 -4 6 1 -2 10 -17 21
-17 21 -18 -5z"/>
<path d="M3734 5002 c22 -25 43 -27 70 -7 17 13 15 14 -15 12 -19 0 -43 3 -54
8 -20 8 -20 8 -1 -13z"/>
<path d="M1540 5439 c0 -5 5 -7 10 -4 6 3 10 8 10 11 0 2 -4 4 -10 4 -5 0 -10
-5 -10 -11z"/>
<path d="M1785 5160 c3 -5 10 -10 16 -10 5 0 9 5 9 10 0 6 -7 10 -16 10 -8 0
-12 -4 -9 -10z"/>
<path d="M6145 4351 c-3 -5 -2 -12 3 -15 5 -3 9 1 9 9 0 17 -3 19 -12 6z"/>
<path d="M1200 4121 c0 -6 4 -13 10 -16 6 -3 7 1 4 9 -7 18 -14 21 -14 7z"/>
<path d="M1885 2930 c3 -5 13 -10 21 -10 8 0 12 5 9 10 -3 6 -13 10 -21 10 -8
0 -12 -4 -9 -10z"/>
<path d="M4075 4290 c12 -4 27 -16 35 -26 10 -13 10 -15 1 -7 -7 6 -20 9 -29
6 -11 -5 -13 -3 -7 6 6 10 2 11 -16 6 -33 -10 -34 -12 -23 -43 6 -18 17 -28
34 -30 36 -3 53 12 53 48 0 34 -16 50 -48 49 -20 0 -20 0 0 -9z"/>
<path d="M3807 4112 c-33 -36 -8 -92 40 -92 37 0 70 57 53 91 -14 25 -71 26
-93 1z m52 -28 c-6 -8 -15 -14 -20 -14 -14 0 -11 28 4 33 20 7 29 -4 16 -19z"/>
<path d="M907 2093 c3 -7 6 -13 8 -13 2 0 5 6 8 13 3 8 -1 14 -8 14 -7 0 -11
-6 -8 -14z"/>
<path d="M1047 1839 c7 -7 15 -10 18 -7 3 3 -2 9 -12 12 -14 6 -15 5 -6 -5z"/>
<path d="M1065 1810 c3 -5 8 -10 11 -10 2 0 4 5 4 10 0 6 -5 10 -11 10 -5 0
-7 -4 -4 -10z"/>
<path d="M1119 1737 c16 -24 38 -50 48 -57 14 -11 13 -9 -3 10 -12 14 -29 40
-40 58 -10 17 -22 32 -27 32 -4 0 5 -19 22 -43z"/>
<path d="M1200 1631 c0 -5 7 -12 16 -15 14 -5 15 -4 4 9 -14 17 -20 19 -20 6z"/>
<path d="M1256 1568 c3 -4 13 -12 24 -18 15 -8 17 -6 13 9 -3 11 -13 19 -23
18 -10 -1 -16 -5 -14 -9z"/>
<path d="M651 2544 c0 -11 3 -14 6 -6 3 7 2 16 -1 19 -3 4 -6 -2 -5 -13z"/>
<path d="M720 2351 c0 -6 4 -13 10 -16 6 -3 7 1 4 9 -7 18 -14 21 -14 7z"/>
<path d="M692 2310 c0 -14 2 -19 5 -12 2 6 2 18 0 25 -3 6 -5 1 -5 -13z"/>
<path d="M738 2264 c2 -20 8 -32 12 -27 10 9 1 63 -9 63 -4 0 -5 -16 -3 -36z"/>
<path d="M6574 1924 c-3 -10 -15 -40 -26 -66 -12 -27 -18 -51 -15 -54 4 -4 10
2 13 12 4 10 16 41 26 68 10 27 16 51 14 54 -3 3 -8 -4 -12 -14z"/>
<path d="M810 1921 c0 -6 4 -13 10 -16 6 -3 7 1 4 9 -7 18 -14 21 -14 7z"/>
<path d="M6416 1903 c-6 -14 -5 -15 5 -6 7 7 10 15 7 18 -3 3 -9 -2 -12 -12z"/>
<path d="M6449 1883 c-13 -16 -12 -17 4 -4 16 13 21 21 13 21 -2 0 -10 -8 -17
-17z"/>
<path d="M6367 1800 c-72 -58 -122 -74 -217 -67 -58 4 -80 2 -80 -7 0 -41
-128 -328 -143 -319 -6 4 -7 1 -2 -6 9 -16 -85 -201 -102 -201 -7 0 -13 -8
-13 -17 0 -23 -34 -75 -43 -66 -4 3 -7 1 -7 -5 0 -24 -2 -27 -16 -35 -8 -4
-14 -13 -14 -18 0 -20 -41 -69 -52 -63 -7 5 -3 14 12 26 12 10 21 21 18 23 -2
3 -15 -7 -29 -21 -20 -21 -21 -27 -9 -34 12 -7 6 -18 -30 -55 -29 -30 -47 -42
-54 -35 -13 13 -29 13 -21 0 3 -5 -3 -10 -14 -10 -12 0 -21 -4 -21 -10 0 -5
-4 -10 -10 -10 -5 0 21 31 58 68 37 38 86 95 110 128 48 67 107 164 98 164 -3
0 -16 -19 -30 -42 -31 -52 -329 -350 -371 -370 -16 -8 -43 -22 -60 -31 -84
-45 -240 -107 -267 -107 -9 0 -20 -5 -24 -11 -10 -17 76 -2 160 28 91 33 178
76 239 119 26 19 47 31 47 28 0 -10 -53 -53 -72 -60 -24 -7 -23 -34 2 -34 11
0 36 9 55 20 20 11 42 20 48 19 7 -1 19 0 27 3 8 3 44 16 80 28 36 12 70 27
77 32 7 5 18 6 24 2 7 -4 9 -3 6 3 -7 11 50 40 66 35 5 -1 6 1 3 6 -3 5 6 14
20 21 42 19 165 115 219 171 28 29 40 47 28 41 -12 -6 -25 -16 -28 -21 -10
-16 -122 -70 -129 -63 -12 12 -6 79 9 99 9 12 14 42 15 82 0 47 5 71 23 97 25
40 42 40 43 1 1 -34 8 -40 32 -27 13 7 23 26 27 51 9 53 38 87 84 100 47 12
65 32 58 62 -5 16 5 34 39 71 24 27 44 55 44 63 0 7 24 40 53 72 44 51 95 123
85 122 -2 -1 -25 -18 -51 -40z m-787 -924 c0 -2 -8 -10 -17 -17 -16 -13 -17
-12 -4 4 13 16 21 21 21 13z m-45 -35 c-3 -6 -11 -11 -16 -11 -5 0 -4 6 3 14
14 16 24 13 13 -3z"/>
<path d="M6276 1775 c-3 -8 -1 -15 4 -15 6 0 10 7 10 15 0 8 -2 15 -4 15 -2 0
-6 -7 -10 -15z"/>
<path d="M6223 1753 c9 -2 23 -2 30 0 6 3 -1 5 -18 5 -16 0 -22 -2 -12 -5z"/>
<path d="M6444 1638 c-5 -7 -18 -29 -28 -48 -11 -19 -43 -65 -73 -102 -29 -37
-53 -70 -53 -75 0 -4 -29 -37 -64 -73 -35 -36 -78 -92 -96 -125 l-32 -60 74
75 c40 41 77 73 81 72 5 -1 6 2 3 7 -3 4 9 28 28 52 57 76 185 289 173 289 -2
0 -9 -6 -13 -12z"/>
<path d="M1200 1327 c0 -2 15 -16 33 -33 l32 -29 -29 33 c-28 30 -36 37 -36
29z"/>
<path d="M1888 1263 c7 -3 16 -2 19 1 4 3 -2 6 -13 5 -11 0 -14 -3 -6 -6z"/>
<path d="M1404 1161 c7 -11 46 -35 46 -28 0 3 -12 12 -26 22 -15 9 -23 12 -20
6z"/>
<path d="M1562 1114 c10 -10 20 -15 24 -12 3 4 -5 12 -18 18 -22 12 -22 12 -6
-6z"/>
<path d="M5094 1102 c4 -7 3 -12 -2 -12 -6 0 -12 -7 -15 -14 -4 -10 -1 -13 8
-10 18 7 27 32 13 40 -7 4 -8 3 -4 -4z"/>
<path d="M2440 1040 c-13 -8 -13 -10 2 -10 9 0 20 5 23 10 8 13 -5 13 -25 0z"/>
<path d="M1778 988 c5 -5 16 -8 23 -6 8 3 3 7 -10 11 -17 4 -21 3 -13 -5z"/>
<path d="M2238 993 c-26 -7 -22 -24 5 -19 12 3 26 5 30 5 5 1 5 6 2 11 -6 10
-9 11 -37 3z"/>
<path d="M2020 980 c-8 -5 -10 -10 -5 -10 6 0 17 5 25 10 8 5 11 10 5 10 -5 0
-17 -5 -25 -10z"/>
<path d="M1860 969 c0 -5 11 -9 25 -9 14 0 25 2 25 4 0 2 -11 6 -25 8 -14 3
-25 1 -25 -3z"/>
<path d="M1970 948 c0 -4 35 -7 78 -7 85 1 80 6 -15 12 -35 2 -63 0 -63 -5z"/>
<path d="M2185 951 l-50 -7 68 -4 c42 -3 66 -1 64 5 -5 13 -20 14 -82 6z"/>
<path d="M5610 939 c0 -5 5 -7 10 -4 6 3 10 8 10 11 0 2 -4 4 -10 4 -5 0 -10
-5 -10 -11z"/>
<path d="M5585 930 c-3 -5 -1 -10 5 -10 6 0 8 -5 4 -12 -4 -7 -3 -8 4 -4 6 4
9 13 5 21 -6 18 -10 19 -18 5z"/>
<path d="M3121 858 c-1 -9 6 -21 16 -26 10 -6 14 -16 10 -26 -4 -10 -3 -15 3
-11 14 9 12 33 -4 42 -7 4 -16 15 -19 23 -4 12 -6 12 -6 -2z"/>
<path d="M4218 853 c7 -3 16 -2 19 1 4 3 -2 6 -13 5 -11 0 -14 -3 -6 -6z"/>
<path d="M5540 780 c0 -5 7 -7 15 -4 8 4 15 8 15 10 0 2 -7 4 -15 4 -8 0 -15
-4 -15 -10z"/>
<path d="M5428 723 c6 -2 18 -2 25 0 6 3 1 5 -13 5 -14 0 -19 -2 -12 -5z"/>
<path d="M4390 711 c0 -5 5 -13 10 -16 6 -3 10 -2 10 4 0 5 -4 13 -10 16 -5 3
-10 2 -10 -4z"/>
<path d="M3944 678 l-29 -33 33 29 c17 17 32 31 32 33 0 8 -8 1 -36 -29z"/>
<path d="M4806 695 c-10 -8 -22 -12 -27 -10 -4 3 -11 0 -15 -6 -5 -8 -2 -10 7
-5 8 4 5 0 -5 -8 -11 -9 -17 -18 -14 -22 3 -3 62 -2 129 3 l124 8 -85 5 c-76
5 -85 7 -90 27 -4 19 -7 20 -24 8z"/>
<path d="M5048 603 c6 -2 18 -2 25 0 6 3 1 5 -13 5 -14 0 -19 -2 -12 -5z"/>
<path d="M3780 519 c-19 -17 -26 -26 -15 -21 18 9 64 52 54 52 -2 0 -20 -14
-39 -31z"/>
<path d="M2750 536 c0 -2 8 -10 18 -17 15 -13 16 -12 3 4 -13 16 -21 21 -21
13z"/>
<path d="M3266 527 c3 -10 9 -15 12 -12 3 3 0 11 -7 18 -10 9 -11 8 -5 -6z"/>
<path d="M2810 495 c0 -7 61 -37 66 -33 2 3 -12 12 -31 21 -19 9 -35 15 -35
12z"/>
<path d="M3665 444 c-90 -56 -164 -82 -176 -63 -7 11 -9 10 -9 -5 0 -13 -5
-17 -20 -13 -16 4 -18 2 -10 -13 5 -9 8 -19 7 -21 -1 -2 0 -3 2 -2 2 1 24 -8
50 -21 61 -31 110 -44 59 -16 -64 35 -51 62 57 119 51 27 130 82 115 80 -3 -1
-36 -21 -75 -45z"/>
<path d="M2940 430 c8 -5 22 -10 30 -10 13 0 13 1 0 10 -8 5 -22 10 -30 10
-13 0 -13 -1 0 -10z"/>
<path d="M2837 409 c7 -7 15 -10 18 -7 3 3 -2 9 -12 12 -14 6 -15 5 -6 -5z"/>
<path d="M3000 410 c8 -5 20 -10 25 -10 6 0 3 5 -5 10 -8 5 -19 10 -25 10 -5
0 -3 -5 5 -10z"/>
<path d="M3360 406 c0 -2 8 -10 18 -17 15 -13 16 -12 3 4 -13 16 -21 21 -21
13z"/>
<path d="M3058 393 c7 -3 16 -2 19 1 4 3 -2 6 -13 5 -11 0 -14 -3 -6 -6z"/>
<path d="M3380 325 c0 -2 10 -10 23 -16 20 -11 21 -11 8 4 -13 16 -31 23 -31
12z"/>
<path d="M4113 306 c-18 -6 -36 -15 -40 -20 -9 -10 28 0 72 19 37 16 12 17
-32 1z"/>
<path d="M3995 270 c-7 -12 12 -12 40 0 18 8 17 9 -7 9 -15 1 -30 -3 -33 -9z"/>
<path d="M3658 253 c7 -3 16 -2 19 1 4 3 -2 6 -13 5 -11 0 -14 -3 -6 -6z"/>
<path d="M3875 249 c-5 -7 5 -8 32 -3 51 9 54 14 10 14 -20 0 -39 -5 -42 -11z"/>
<path d="M3680 188 c0 -5 18 -8 40 -8 22 0 40 2 40 4 0 2 -18 6 -40 8 -22 2
-40 0 -40 -4z"/>
<path d="M3908 183 c6 -2 18 -2 25 0 6 3 1 5 -13 5 -14 0 -19 -2 -12 -5z"/>
</g>
</svg>
