<svg width="834" height="834" viewBox="0 0 834 834" fill="none" xmlns="http://www.w3.org/2000/svg">
<rect width="5878" height="6100" transform="translate(-1559 -2717)" fill="white"/>
<path d="M417.205 0.410156C243.255 0.410156 192.381 0.589611 182.492 1.40997C146.794 4.37738 124.581 9.99816 100.381 22.0472C81.7313 31.3084 67.0229 42.0436 52.5068 57.0922C26.0701 84.5359 10.0478 118.299 4.24778 158.433C1.42787 177.916 0.60753 181.89 0.440899 281.41C0.37681 314.584 0.440899 358.243 0.440899 416.802C0.440899 590.617 0.633165 641.441 1.46632 651.311C4.35033 686.048 9.79789 707.903 21.3339 731.809C43.3805 777.57 85.4869 811.923 135.092 824.741C152.268 829.163 171.238 831.599 195.592 832.752C205.91 833.201 311.08 833.521 416.314 833.521C521.548 833.521 626.782 833.393 636.844 832.881C665.043 831.554 681.418 829.355 699.523 824.677C749.449 811.795 790.786 777.955 813.281 731.553C824.593 708.224 830.329 685.536 832.924 652.612C833.488 645.434 833.726 530.987 833.726 416.693C833.726 302.381 833.469 188.145 832.905 180.967C830.278 147.512 824.542 125.016 812.865 101.238C803.283 81.7736 792.644 67.2377 777.199 52.3751C749.634 26.0465 715.924 10.0238 675.753 4.22997C656.289 1.41638 652.411 0.583202 552.817 0.410156H417.205Z" fill="url(#paint0_radial)"/>
<path d="M417.205 0.410156C243.255 0.410156 192.381 0.589611 182.492 1.40997C146.794 4.37738 124.581 9.99816 100.381 22.0472C81.7313 31.3084 67.0229 42.0436 52.5068 57.0922C26.0701 84.5359 10.0478 118.299 4.24778 158.433C1.42787 177.916 0.60753 181.89 0.440899 281.41C0.37681 314.584 0.440899 358.243 0.440899 416.802C0.440899 590.617 0.633165 641.441 1.46632 651.311C4.35033 686.048 9.79789 707.903 21.3339 731.809C43.3805 777.57 85.4869 811.923 135.092 824.741C152.268 829.163 171.238 831.599 195.592 832.752C205.91 833.201 311.08 833.521 416.314 833.521C521.548 833.521 626.782 833.393 636.844 832.881C665.043 831.554 681.418 829.355 699.523 824.677C749.449 811.795 790.786 777.955 813.281 731.553C824.593 708.224 830.329 685.536 832.924 652.612C833.488 645.434 833.726 530.987 833.726 416.693C833.726 302.381 833.469 188.145 832.905 180.967C830.278 147.512 824.542 125.016 812.865 101.238C803.283 81.7736 792.644 67.2377 777.199 52.3751C749.634 26.0465 715.924 10.0238 675.753 4.22997C656.289 1.41638 652.411 0.583202 552.817 0.410156H417.205Z" fill="url(#paint1_radial)"/>
<path d="M417.013 109.363C333.466 109.363 322.982 109.729 290.168 111.222C257.419 112.722 235.064 117.907 215.504 125.514C195.271 133.372 178.108 143.883 161.009 160.988C143.898 178.088 133.387 195.251 125.504 215.479C117.878 235.046 112.686 257.407 111.212 290.144C109.745 322.959 109.36 333.451 109.36 417C109.36 500.548 109.732 511.002 111.219 543.816C112.725 576.567 117.91 598.922 125.511 618.482C133.374 638.716 143.885 655.879 160.99 672.979C178.083 690.091 195.246 700.627 215.466 708.485C235.039 716.093 257.399 721.278 290.142 722.777C322.956 724.271 333.434 724.636 416.974 724.636C500.527 724.636 510.98 724.271 543.794 722.777C576.543 721.278 598.923 716.093 618.496 708.485C638.722 700.627 655.86 690.091 672.952 672.979C690.064 655.879 700.574 638.716 708.457 618.489C716.02 598.922 721.211 576.56 722.749 543.823C724.223 511.008 724.608 500.548 724.608 417C724.608 333.451 724.223 322.965 722.749 290.151C721.211 257.4 716.02 235.046 708.457 215.485C700.574 195.251 690.064 178.088 672.952 160.988C655.84 143.876 638.729 133.365 618.477 125.514C598.865 117.907 576.498 112.722 543.749 111.222C510.935 109.729 500.489 109.363 416.917 109.363H417.013ZM389.416 164.802C397.607 164.789 406.746 164.802 417.013 164.802C499.149 164.802 508.884 165.097 541.32 166.571C571.313 167.942 587.592 172.954 598.436 177.165C612.792 182.741 623.027 189.406 633.787 200.174C644.554 210.941 651.22 221.195 656.808 235.552C661.019 246.383 666.037 262.662 667.402 292.657C668.876 325.087 669.196 334.829 669.196 416.929C669.196 499.03 668.876 508.771 667.402 541.201C666.03 571.196 661.019 587.475 656.808 598.306C651.232 612.663 644.554 622.885 633.787 633.646C623.02 644.413 612.798 651.079 598.436 656.655C587.605 660.885 571.313 665.884 541.32 667.255C508.891 668.729 499.149 669.05 417.013 669.05C334.87 669.05 325.135 668.729 292.706 667.255C262.712 665.871 246.434 660.859 235.583 656.648C221.227 651.072 210.973 644.407 200.206 633.64C189.439 622.872 182.774 612.643 177.186 598.281C172.975 587.449 167.957 571.17 166.592 541.176C165.118 508.746 164.823 499.004 164.823 416.852C164.823 334.7 165.118 325.01 166.592 292.58C167.963 262.585 172.975 246.306 177.186 235.462C182.761 221.106 189.439 210.851 200.206 200.084C210.973 189.317 221.227 182.651 235.583 177.062C246.427 172.832 262.712 167.833 292.706 166.455C321.085 165.174 332.082 164.789 389.416 164.725V164.802ZM581.222 215.882C560.841 215.882 544.306 232.399 544.306 252.786C544.306 273.167 560.841 289.702 581.222 289.702C601.602 289.702 618.137 273.167 618.137 252.786C618.137 232.405 601.602 215.87 581.222 215.87V215.882ZM417.013 259.016C329.769 259.016 259.034 329.753 259.034 417C259.034 504.247 329.769 574.952 417.013 574.952C504.257 574.952 574.966 504.247 574.966 417C574.966 329.753 504.251 259.016 417.006 259.016H417.013ZM417.013 314.454C473.642 314.454 519.555 360.362 519.555 417C519.555 473.63 473.642 519.545 417.013 519.545C360.377 519.545 314.471 473.63 314.471 417C314.471 360.362 360.377 314.454 417.013 314.454Z" fill="white"/>
<defs>
<radialGradient id="paint0_radial" cx="0" cy="0" r="1" gradientUnits="userSpaceOnUse" gradientTransform="translate(221.762 897.688) rotate(-90) scale(825.675 768.129)">
<stop stop-color="#FFDD55"/>
<stop offset="0.1" stop-color="#FFDD55"/>
<stop offset="0.5" stop-color="#FF543E"/>
<stop offset="1" stop-color="#C837AB"/>
</radialGradient>
<radialGradient id="paint1_radial" cx="0" cy="0" r="1" gradientUnits="userSpaceOnUse" gradientTransform="translate(-139.172 60.4261) rotate(78.678) scale(369.083 1521.72)">
<stop stop-color="#3771C8"/>
<stop offset="0.128" stop-color="#3771C8"/>
<stop offset="1" stop-color="#6600FF" stop-opacity="0"/>
</radialGradient>
</defs>
</svg>
